<svg width="30" height="30" viewBox="0 0 30 30" fill="none" xmlns="http://www.w3.org/2000/svg">
<path d="M21.25 3.75C21.25 3.05875 20.69 2.5 20 2.5C19.31 2.5 18.75 3.05875 18.75 3.75H11.25C11.25 3.05875 10.69 2.5 10 2.5C9.31 2.5 8.75 3.05875 8.75 3.75C5.30375 3.75 2.5 6.55375 2.5 10V21.25C2.5 24.6963 5.30375 27.5 8.75 27.5H21.25C24.6963 27.5 27.5 24.6963 27.5 21.25V10C27.5 6.55375 24.6963 3.75 21.25 3.75ZM8.75 6.25V7.5C8.75 8.19125 9.31 8.75 10 8.75C10.69 8.75 11.25 8.19125 11.25 7.5V6.25H18.75V7.5C18.75 8.19125 19.31 8.75 20 8.75C20.69 8.75 21.25 8.19125 21.25 7.5V6.25C23.3175 6.25 25 7.9325 25 10H5C5 7.9325 6.6825 6.25 8.75 6.25ZM21.25 25H8.75C6.6825 25 5 23.3175 5 21.25V12.5H25V21.25C25 23.3175 23.3175 25 21.25 25ZM21.25 16.25C21.25 16.94 20.69 17.5 20 17.5C19.31 17.5 18.75 16.94 18.75 16.25C18.75 15.56 19.31 15 20 15C20.69 15 21.25 15.56 21.25 16.25ZM16.25 16.25C16.25 16.94 15.69 17.5 15 17.5C14.31 17.5 13.75 16.94 13.75 16.25C13.75 15.56 14.31 15 15 15C15.69 15 16.25 15.56 16.25 16.25ZM11.25 16.25C11.25 16.94 10.69 17.5 10 17.5C9.31 17.5 8.75 16.94 8.75 16.25C8.75 15.56 9.31 15 10 15C10.69 15 11.25 15.56 11.25 16.25ZM21.25 21.25C21.25 21.94 20.69 22.5 20 22.5C19.31 22.5 18.75 21.94 18.75 21.25C18.75 20.56 19.31 20 20 20C20.69 20 21.25 20.56 21.25 21.25ZM16.25 21.25C16.25 21.94 15.69 22.5 15 22.5C14.31 22.5 13.75 21.94 13.75 21.25C13.75 20.56 14.31 20 15 20C15.69 20 16.25 20.56 16.25 21.25ZM11.25 21.25C11.25 21.94 10.69 22.5 10 22.5C9.31 22.5 8.75 21.94 8.75 21.25C8.75 20.56 9.31 20 10 20C10.69 20 11.25 20.56 11.25 21.25Z" fill="#171F0E"/>
</svg>
