<svg width="40" height="40" viewBox="0 0 40 40" fill="none" xmlns="http://www.w3.org/2000/svg">
<g filter="url(#filter0_d_493_1641)">
<path d="M31 2H9C6.23858 2 4 4.23858 4 7V29C4 31.7614 6.23858 34 9 34H31C33.7614 34 36 31.7614 36 29V7C36 4.23858 33.7614 2 31 2Z" fill="#0030DC"/>
<path d="M28 18C28 13.6 24.4 10 20 10C15.6 10 12 13.6 12 18C12 22 14.9 25.3 18.7 25.9V20.3H16.7V18H18.7V16.2C18.7 14.2 19.9 13.1 21.7 13.1C22.6 13.1 23.5 13.3 23.5 13.3V15.3H22.5C21.5 15.3 21.2 15.9 21.2 16.5V18H23.4L23 20.3H21.1V26C25.1 25.4 28 22 28 18Z" fill="white"/>
</g>
<defs>
<filter id="filter0_d_493_1641" x="0" y="0" width="40" height="40" filterUnits="userSpaceOnUse" color-interpolation-filters="sRGB">
<feFlood flood-opacity="0" result="BackgroundImageFix"/>
<feColorMatrix in="SourceAlpha" type="matrix" values="0 0 0 0 0 0 0 0 0 0 0 0 0 0 0 0 0 0 127 0" result="hardAlpha"/>
<feOffset dy="2"/>
<feGaussianBlur stdDeviation="2"/>
<feComposite in2="hardAlpha" operator="out"/>
<feColorMatrix type="matrix" values="0 0 0 0 0 0 0 0 0 0 0 0 0 0 0 0 0 0 0.25 0"/>
<feBlend mode="normal" in2="BackgroundImageFix" result="effect1_dropShadow_493_1641"/>
<feBlend mode="normal" in="SourceGraphic" in2="effect1_dropShadow_493_1641" result="shape"/>
</filter>
</defs>
</svg>
