<svg width="62" height="60" viewBox="0 0 62 60" fill="none" xmlns="http://www.w3.org/2000/svg">
<rect width="62" height="60" fill="white"/>
<g clip-path="url(#clip0_1097_547)">
<path d="M27.667 16.3333L31.0003 16.3333L34.3337 16.3333" stroke="#BC6C25" stroke-width="1.5" stroke-linecap="round" stroke-linejoin="round"/>
<path d="M27.667 19.6667L29.3337 19.6667L31.0003 19.6667" stroke="#BC6C25" stroke-width="1.5" stroke-linecap="round" stroke-linejoin="round"/>
<path d="M31.0003 26.3334C35.6027 26.3334 39.3337 22.6024 39.3337 18C39.3337 13.3976 35.6027 9.66669 31.0003 9.66669C26.398 9.66669 22.667 13.3976 22.667 18C22.667 19.5179 23.0728 20.941 23.7818 22.1667L23.0837 25.9167L26.8337 25.2185C28.0594 25.9275 29.4825 26.3334 31.0003 26.3334Z" stroke="#BC6C25" stroke-width="1.5" stroke-linecap="round" stroke-linejoin="round"/>
</g>
<path d="M23.3291 42.495C22.5941 43.23 21.5141 43.635 20.5391 43.635C17.8241 43.635 16.6841 41.73 16.6691 39.81C16.6541 37.875 17.8691 35.91 20.5391 35.91C21.5141 35.91 22.5041 36.255 23.2541 36.99L24.3791 35.91C23.3141 34.845 21.9491 34.32 20.5391 34.32C16.7891 34.32 14.9891 37.065 15.0041 39.825C15.0191 42.585 16.7291 45.21 20.5391 45.21C22.0091 45.21 23.4041 44.715 24.4841 43.65L23.3291 42.495ZM25.426 34.5V45H26.971V41.145C26.971 39.93 27.811 38.94 29.011 38.94C30.151 38.94 30.871 39.63 30.871 41.025V45H32.416V41.01C32.416 38.895 31.456 37.5 29.371 37.5C28.486 37.5 27.616 37.8 26.971 38.7V34.5H25.426ZM39.8005 38.775C39.3355 37.935 38.3305 37.44 37.2805 37.44C35.1505 37.44 33.4555 38.82 33.4555 41.295C33.4555 43.815 35.0905 45.21 37.2505 45.195C38.1655 45.195 39.3055 44.745 39.8005 43.8L39.8755 45H41.3455C41.3455 42.54 41.3455 40.065 41.3455 37.605H39.8455L39.8005 38.775ZM37.4005 38.85C40.5955 38.85 40.5955 43.755 37.4005 43.755C36.0805 43.755 35.0005 42.825 35.0005 41.295C35.0005 39.78 36.0805 38.85 37.4005 38.85ZM43.7666 35.64V37.62H42.3416V38.955H43.7666V42.48C43.7666 44.22 44.6816 45.135 46.2866 45.09C46.8116 45.09 47.2616 44.985 47.7716 44.76L47.3216 43.44C47.0216 43.59 46.6766 43.695 46.3766 43.695C45.6566 43.695 45.3116 43.26 45.3116 42.48V38.955H47.4866V37.62H45.3266V35.475L43.7666 35.64Z" fill="#BC6C25"/>
<defs>
<clipPath id="clip0_1097_547">
<rect width="20" height="20" fill="white" transform="translate(21 8)"/>
</clipPath>
</defs>
</svg>
