<svg width="62" height="60" viewBox="0 0 62 60" fill="none" xmlns="http://www.w3.org/2000/svg">
<rect width="62" height="60" fill="white"/>
<g clip-path="url(#clip0_1097_541)">
<circle cx="31.0003" cy="18" r="8.33333" stroke="#9F9E9E" stroke-width="1.5"/>
<path fill-rule="evenodd" clip-rule="evenodd" d="M32.6084 22.8908C32.34 23.6656 31.2439 23.665 30.9765 22.8898L29.6267 18.9782L25.8187 17.3589C25.0641 17.038 25.1399 15.9445 25.9316 15.7309L34.4577 13.4299C35.1269 13.2493 35.7253 13.8911 35.4985 14.546L32.6084 22.8908Z" stroke="#9F9E9E" stroke-width="1.5"/>
</g>
<path d="M5.97465 45H13.5946V43.755H7.26465V40.2H13.0996V38.985H7.26465V35.7H13.3546V34.5H5.97465V45ZM14.3502 44.97V45H15.7152L17.8152 42L19.9002 45H21.3102V44.97L18.5952 41.205L21.1152 37.635V37.59H19.7052L17.8152 40.395L15.8952 37.59H14.5302V37.635L17.0202 41.205L14.3502 44.97ZM22.4219 48.495H23.6219V43.665C24.2069 44.715 25.3769 45.165 26.4269 45.165C28.6469 45.165 30.1919 43.65 30.1919 41.31C30.1919 39.03 28.6319 37.53 26.5019 37.485C25.3319 37.485 24.2369 38.055 23.6519 39.045L23.5919 37.62H22.4219V48.495ZM26.3519 44.01C24.8519 43.995 23.7569 42.855 23.7569 41.34C23.7569 39.825 24.8069 38.685 26.3519 38.685C27.8669 38.685 28.9619 39.675 28.9619 41.34C28.9619 43.005 27.8369 44.01 26.3519 44.01ZM33.0527 34.5H31.8227V45H33.0527V34.5ZM34.6748 41.31C34.6748 43.56 36.2948 45.135 38.5148 45.135C40.7498 45.135 42.3698 43.56 42.3698 41.31C42.3698 39.015 40.7798 37.425 38.5148 37.425C36.3098 37.425 34.6748 39.015 34.6748 41.31ZM41.1548 41.31C41.1398 42.87 40.0448 43.98 38.5148 43.98C36.9998 43.98 35.9048 42.87 35.9048 41.31C35.9048 39.66 37.0148 38.55 38.5298 38.55C40.0148 38.55 41.1548 39.66 41.1548 41.31ZM45.0343 37.59H43.8943V45H45.1243V40.875C45.1243 39.51 46.1143 38.67 47.2993 38.655C47.8093 38.655 48.1993 38.79 48.5893 39.06L49.1443 38.01C48.6943 37.665 48.0643 37.44 47.4193 37.455C46.5643 37.455 45.6493 37.725 45.1393 38.685L45.0493 37.575L45.0343 37.59ZM56.4809 43.815L55.6559 43.065C55.1609 43.665 54.1409 43.995 53.3009 43.995C51.8759 43.995 50.7509 43.14 50.6159 41.775H56.9159C57.2009 38.82 55.4759 37.425 53.2109 37.425C50.9759 37.425 49.3709 39.03 49.3709 41.265C49.3709 43.62 50.9759 45.135 53.2709 45.135C54.4259 45.135 55.7159 44.7 56.4659 43.815H56.4809ZM55.7459 40.74H50.6159C50.8259 39.315 51.9509 38.535 53.2409 38.535C54.6959 38.535 55.6859 39.315 55.7459 40.755V40.74Z" fill="#9F9E9E"/>
<defs>
<clipPath id="clip0_1097_541">
<rect width="20" height="20" fill="white" transform="translate(21 8)"/>
</clipPath>
</defs>
</svg>
