<svg width="63" height="60" viewBox="0 0 63 60" fill="none" xmlns="http://www.w3.org/2000/svg">
<rect width="63" height="60" fill="white"/>
<path d="M23.583 15.9166L31.4997 11.3333L39.4163 15.9166" stroke="#9F9E9E" stroke-width="1.5" stroke-linecap="round" stroke-linejoin="round"/>
<path d="M27.333 25.5V24.6667C27.333 22.3655 29.1985 20.5 31.4997 20.5V20.5C33.8009 20.5 35.6663 22.3655 35.6663 24.6667V25.5" stroke="#9F9E9E" stroke-width="1.5"/>
<path d="M31.5 20.5C32.8807 20.5 34 19.3807 34 18C34 16.6193 32.8807 15.5 31.5 15.5C30.1193 15.5 29 16.6193 29 18C29 19.3807 30.1193 20.5 31.5 20.5Z" stroke="#9F9E9E" stroke-width="1.5" stroke-linecap="round" stroke-linejoin="round"/>
<path d="M19.6319 45H20.9369V34.5H19.6319V39.045H13.6319V34.5H12.3269V45H13.6319V40.26H19.6319V45ZM22.5576 41.31C22.5576 43.56 24.1776 45.135 26.3976 45.135C28.6326 45.135 30.2526 43.56 30.2526 41.31C30.2526 39.015 28.6626 37.425 26.3976 37.425C24.1926 37.425 22.5576 39.015 22.5576 41.31ZM29.0376 41.31C29.0226 42.87 27.9276 43.98 26.3976 43.98C24.8826 43.98 23.7876 42.87 23.7876 41.31C23.7876 39.66 24.8976 38.55 26.4126 38.55C27.8976 38.55 29.0376 39.66 29.0376 41.31ZM31.7771 37.59V45H33.0071V40.8C33.0071 39.585 33.8021 38.625 35.0171 38.625C36.2471 38.625 37.0121 39.585 37.0121 40.8V45H38.2421V40.8C38.2421 39.585 39.0521 38.625 40.2671 38.625C41.4821 38.625 42.1871 39.555 42.1871 40.77V45H43.4171V40.77C43.4171 38.745 42.2471 37.47 40.2971 37.47C39.2471 37.47 38.2271 37.95 37.6871 39.09C37.2671 37.905 36.2171 37.47 35.1971 37.47C34.3571 37.47 33.4571 37.815 33.0071 38.685L32.9321 37.605H31.7921L31.7771 37.59ZM51.9809 43.815L51.1559 43.065C50.6609 43.665 49.6409 43.995 48.8009 43.995C47.3759 43.995 46.2509 43.14 46.1159 41.775H52.4159C52.7009 38.82 50.9759 37.425 48.7109 37.425C46.4759 37.425 44.8709 39.03 44.8709 41.265C44.8709 43.62 46.4759 45.135 48.7709 45.135C49.9259 45.135 51.2159 44.7 51.9659 43.815H51.9809ZM51.2459 40.74H46.1159C46.3259 39.315 47.4509 38.535 48.7409 38.535C50.1959 38.535 51.1859 39.315 51.2459 40.755V40.74Z" fill="#9F9E9E"/>
</svg>
