<svg width="62" height="60" viewBox="0 0 62 60" fill="none" xmlns="http://www.w3.org/2000/svg">
<rect width="62" height="60" fill="white"/>
<path d="M27.667 13.8333H24.667C23.5624 13.8333 22.667 14.7288 22.667 15.8333V23.5C22.667 24.6046 23.5624 25.5 24.667 25.5H37.3337C38.4382 25.5 39.3337 24.6046 39.3337 23.5V15.8333C39.3337 14.7288 38.4382 13.8333 37.3337 13.8333H34.3337M27.667 13.8333V11.1C27.667 10.7686 27.9356 10.5 28.267 10.5H33.7337C34.065 10.5 34.3337 10.7686 34.3337 11.1V13.8333M27.667 13.8333H34.3337" stroke="#9F9E9E" stroke-width="1.5"/>
<path d="M12.708 34.5L7.99797 45H9.42297L10.443 42.69H16.443L17.478 45H18.888L14.178 34.5H12.708ZM15.933 41.49H10.953L13.443 35.82L15.933 41.49ZM24.7066 39.225L25.4116 38.415C24.6166 37.695 23.7016 37.425 22.5916 37.425C21.1666 37.41 19.5766 38.025 19.5916 39.6C19.5916 41.175 21.1216 41.55 22.5466 41.73C23.6866 41.865 24.5566 42.105 24.5416 42.915C24.5116 43.815 23.4766 44.07 22.6666 44.07C21.7516 44.07 20.6866 43.74 20.0266 42.93L19.3216 43.785C20.1616 44.835 21.3916 45.18 22.6366 45.18C24.3016 45.18 25.7116 44.445 25.7416 42.96C25.7716 41.13 23.9716 40.86 22.6216 40.695C21.6916 40.59 20.7916 40.365 20.7766 39.6C20.7616 38.865 21.5866 38.505 22.6066 38.52C23.3716 38.52 24.0466 38.655 24.6916 39.24L24.7066 39.225ZM31.9519 39.225L32.6569 38.415C31.8619 37.695 30.9469 37.425 29.8369 37.425C28.4119 37.41 26.8219 38.025 26.8369 39.6C26.8369 41.175 28.3669 41.55 29.7919 41.73C30.9319 41.865 31.8019 42.105 31.7869 42.915C31.7569 43.815 30.7219 44.07 29.9119 44.07C28.9969 44.07 27.9319 43.74 27.2719 42.93L26.5669 43.785C27.4069 44.835 28.6369 45.18 29.8819 45.18C31.5469 45.18 32.9569 44.445 32.9869 42.96C33.0169 41.13 31.2169 40.86 29.8669 40.695C28.9369 40.59 28.0369 40.365 28.0219 39.6C28.0069 38.865 28.8319 38.505 29.8519 38.52C30.6169 38.52 31.2919 38.655 31.9369 39.24L31.9519 39.225ZM41.0723 43.815L40.2473 43.065C39.7523 43.665 38.7323 43.995 37.8923 43.995C36.4673 43.995 35.3423 43.14 35.2073 41.775H41.5073C41.7923 38.82 40.0673 37.425 37.8023 37.425C35.5673 37.425 33.9623 39.03 33.9623 41.265C33.9623 43.62 35.5673 45.135 37.8623 45.135C39.0173 45.135 40.3073 44.7 41.0573 43.815H41.0723ZM40.3373 40.74H35.2073C35.4173 39.315 36.5423 38.535 37.8323 38.535C39.2873 38.535 40.2773 39.315 40.3373 40.755V40.74ZM45.0027 35.43L43.7727 35.565V37.605H42.2877V38.655H43.7727V42.57C43.7727 44.205 44.5227 45.135 46.1127 45.105C46.6077 45.09 47.0577 44.97 47.5527 44.745L47.1927 43.725C46.8627 43.89 46.4877 43.995 46.1577 43.995C45.2727 43.995 44.9877 43.44 44.9877 42.57V38.655H47.2977V37.605H45.0027V35.43ZM53.4096 39.225L54.1146 38.415C53.3196 37.695 52.4046 37.425 51.2946 37.425C49.8696 37.41 48.2796 38.025 48.2946 39.6C48.2946 41.175 49.8246 41.55 51.2496 41.73C52.3896 41.865 53.2596 42.105 53.2446 42.915C53.2146 43.815 52.1796 44.07 51.3696 44.07C50.4546 44.07 49.3896 43.74 48.7296 42.93L48.0246 43.785C48.8646 44.835 50.0946 45.18 51.3396 45.18C53.0046 45.18 54.4146 44.445 54.4446 42.96C54.4746 41.13 52.6746 40.86 51.3246 40.695C50.3946 40.59 49.4946 40.365 49.4796 39.6C49.4646 38.865 50.2896 38.505 51.3096 38.52C52.0746 38.52 52.7496 38.655 53.3946 39.24L53.4096 39.225Z" fill="#9F9E9E"/>
</svg>
