<svg width="30" height="30" viewBox="0 0 30 30" fill="none" xmlns="http://www.w3.org/2000/svg">
<path d="M1.25 25V22C1.25 18.134 4.38401 15 8.25 15H11.75C15.616 15 18.75 18.134 18.75 22V25" stroke="black" stroke-width="1.5" stroke-linecap="round"/>
<path d="M16.25 17.5V17.5C16.25 14.0482 19.0482 11.25 22.5 11.25V11.25C25.9518 11.25 28.75 14.0482 28.75 17.5V18.125" stroke="black" stroke-width="1.5" stroke-linecap="round"/>
<path d="M10 15C12.7614 15 15 12.7614 15 10C15 7.23858 12.7614 5 10 5C7.23858 5 5 7.23858 5 10C5 12.7614 7.23858 15 10 15Z" stroke="black" stroke-width="1.5" stroke-linecap="round" stroke-linejoin="round"/>
<path d="M22.5 11.25C24.5711 11.25 26.25 9.57107 26.25 7.5C26.25 5.42893 24.5711 3.75 22.5 3.75C20.4289 3.75 18.75 5.42893 18.75 7.5C18.75 9.57107 20.4289 11.25 22.5 11.25Z" stroke="black" stroke-width="1.5" stroke-linecap="round" stroke-linejoin="round"/>
</svg>
