<svg width="30" height="30" viewBox="0 0 30 30" fill="none" xmlns="http://www.w3.org/2000/svg">
<path d="M25 13.75C25 8.22715 20.5228 3.75 15 3.75C9.47715 3.75 5 8.22715 5 13.75" stroke="black" stroke-width="1.5" stroke-linecap="round" stroke-linejoin="round"/>
<path d="M2.5 19.6884V16.5616C2.5 15.6438 3.12459 14.8439 4.01493 14.6213L6.75448 13.9364C7.13317 13.8417 7.5 14.1281 7.5 14.5185V21.7315C7.5 22.1219 7.13317 22.4083 6.75448 22.3136L4.01493 21.6287C3.12459 21.4061 2.5 20.6062 2.5 19.6884Z" stroke="black" stroke-width="1.5"/>
<path d="M27.5 19.6884V16.5616C27.5 15.6438 26.8754 14.8439 25.9851 14.6213L23.2455 13.9364C22.8668 13.8417 22.5 14.1281 22.5 14.5185V21.7315C22.5 22.1219 22.8668 22.4083 23.2455 22.3136L25.9851 21.6287C26.8754 21.4061 27.5 20.6062 27.5 19.6884Z" stroke="black" stroke-width="1.5"/>
<path d="M25 22.5V23.625C25 24.7296 24.1046 25.625 23 25.625H18.125" stroke="black" stroke-width="1.5"/>
<path d="M16.875 27.5H13.125C12.0895 27.5 11.25 26.6605 11.25 25.625C11.25 24.5895 12.0895 23.75 13.125 23.75H16.875C17.9105 23.75 18.75 24.5895 18.75 25.625C18.75 26.6605 17.9105 27.5 16.875 27.5Z" stroke="black" stroke-width="1.5"/>
</svg>
