<svg width="40" height="40" viewBox="0 0 40 40" fill="none" xmlns="http://www.w3.org/2000/svg">
<g filter="url(#filter0_d_493_1669)">
<rect x="4" y="2" width="32" height="32" rx="5" fill="white"/>
</g>
<path d="M18.36 17.71L11.19 12.6201C11.98 11.3501 13.4 10.5 15 10.5H25C26.6 10.5 28.01 11.3401 28.81 12.6101L21.66 17.6899C20.65 18.3599 19.35 18.36 18.36 17.71ZM29.48 14.6001L22.8 19.3401C21.94 19.9101 20.96 20.1899 19.99 20.1899C19.03 20.1899 18.07 19.9101 17.23 19.3501L10.52 14.6001C10.51 14.7301 10.5 14.87 10.5 15V21C10.5 23.48 12.52 25.5 15 25.5H25C27.48 25.5 29.5 23.48 29.5 21V15C29.5 14.87 29.49 14.7301 29.48 14.6001Z" fill="#BC6C25"/>
<defs>
<filter id="filter0_d_493_1669" x="0" y="0" width="40" height="40" filterUnits="userSpaceOnUse" color-interpolation-filters="sRGB">
<feFlood flood-opacity="0" result="BackgroundImageFix"/>
<feColorMatrix in="SourceAlpha" type="matrix" values="0 0 0 0 0 0 0 0 0 0 0 0 0 0 0 0 0 0 127 0" result="hardAlpha"/>
<feOffset dy="2"/>
<feGaussianBlur stdDeviation="2"/>
<feComposite in2="hardAlpha" operator="out"/>
<feColorMatrix type="matrix" values="0 0 0 0 0 0 0 0 0 0 0 0 0 0 0 0 0 0 0.25 0"/>
<feBlend mode="normal" in2="BackgroundImageFix" result="effect1_dropShadow_493_1669"/>
<feBlend mode="normal" in="SourceGraphic" in2="effect1_dropShadow_493_1669" result="shape"/>
</filter>
</defs>
</svg>
