<svg width="23" height="22" viewBox="0 0 23 22" fill="none" xmlns="http://www.w3.org/2000/svg">
<path fill-rule="evenodd" clip-rule="evenodd" d="M17.0675 0.375556C16.1671 0.301993 15.0468 0.301997 13.618 0.302002H9.38138C7.95251 0.301997 6.83226 0.301993 5.9319 0.375556C5.01509 0.450463 4.25768 0.605521 3.57213 0.954828C2.44512 1.52907 1.52883 2.44536 0.954584 3.57237C0.605277 4.25792 0.450219 5.01533 0.375312 5.93214C0.301749 6.83251 0.301753 7.95275 0.301758 9.38163V13.8211C0.301758 16.4224 2.41052 18.5312 5.01182 18.5312H5.63865C5.8975 18.5312 6.0745 18.7926 5.97836 19.0329C5.26309 20.8211 7.32249 22.4377 8.88968 21.3183L11.6092 19.3758L11.6604 19.3394C12.3988 18.819 13.2787 18.537 14.1821 18.5313L14.2449 18.5312L14.9696 18.5312C16.5827 18.5314 17.5667 18.5316 18.3933 18.2892C20.3508 17.7152 21.8816 16.1844 22.4556 14.2269C22.698 13.4003 22.6978 12.4163 22.6976 10.8032L22.6976 9.38161C22.6976 7.95277 22.6976 6.83249 22.624 5.93214C22.5491 5.01533 22.3941 4.25792 22.0448 3.57237C21.4705 2.44536 20.5542 1.52907 19.4272 0.954828C18.7417 0.605521 17.9843 0.450463 17.0675 0.375556ZM4.28149 2.34703C4.71006 2.12866 5.23895 1.99988 6.05914 1.93287C6.88844 1.86511 7.94498 1.8645 9.41634 1.8645H13.583C15.0544 1.8645 16.1109 1.86511 16.9402 1.93287C17.7604 1.99988 18.2893 2.12866 18.7179 2.34703C19.5509 2.77146 20.2281 3.44872 20.6526 4.28173C20.8709 4.7103 20.9997 5.23919 21.0667 6.05938C21.1345 6.88869 21.1351 7.94522 21.1351 9.41658V10.6501C21.1351 12.4646 21.1271 13.2044 20.9562 13.7872C20.532 15.2341 19.4005 16.3656 17.9537 16.7898C17.3708 16.9607 16.6311 16.9687 14.8166 16.9687H14.2449L14.1721 16.9688C12.9499 16.9766 11.7594 17.3581 10.7603 18.0621L10.701 18.1044L7.9815 20.0469C7.68414 20.2593 7.2934 19.9525 7.42911 19.6132C7.93579 18.3466 7.00291 16.9687 5.63865 16.9687H5.01182C3.27347 16.9687 1.86426 15.5595 1.86426 13.8211V9.41658C1.86426 7.94522 1.86487 6.88869 1.93262 6.05938C1.99963 5.23919 2.12841 4.7103 2.34678 4.28173C2.77122 3.44872 3.44848 2.77146 4.28149 2.34703Z" fill="#BC6C25"/>
<path d="M8.37435 9.41667C8.37435 9.99196 7.90798 10.4583 7.33268 10.4583C6.75739 10.4583 6.29102 9.99196 6.29102 9.41667C6.29102 8.84137 6.75739 8.375 7.33268 8.375C7.90798 8.375 8.37435 8.84137 8.37435 9.41667Z" fill="#BC6C25"/>
<path d="M12.541 9.41667C12.541 9.99196 12.0746 10.4583 11.4993 10.4583C10.9241 10.4583 10.4577 9.99196 10.4577 9.41667C10.4577 8.84137 10.9241 8.375 11.4993 8.375C12.0746 8.375 12.541 8.84137 12.541 9.41667Z" fill="#BC6C25"/>
<path d="M16.7077 9.41667C16.7077 9.99196 16.2413 10.4583 15.666 10.4583C15.0907 10.4583 14.6243 9.99196 14.6243 9.41667C14.6243 8.84137 15.0907 8.375 15.666 8.375C16.2413 8.375 16.7077 8.84137 16.7077 9.41667Z" fill="#BC6C25"/>
</svg>
