<svg width="30" height="30" viewBox="0 0 30 30" fill="none" xmlns="http://www.w3.org/2000/svg">
<path d="M2.5 25V22C2.5 18.134 5.63401 15 9.5 15H11.25" stroke="#BC6C25" stroke-width="1.5" stroke-linecap="round" stroke-linejoin="round"/>
<path d="M19.7713 15.3737C20.5647 14.5025 21.9353 14.5025 22.7287 15.3737L22.7524 15.3997C23.1533 15.84 23.7296 16.0787 24.3244 16.0509L24.3596 16.0492C25.5366 15.9942 26.5058 16.9634 26.4508 18.1404L26.4491 18.1756C26.4213 18.7704 26.66 19.3467 27.1003 19.7476L27.1263 19.7713C27.9975 20.5647 27.9975 21.9353 27.1263 22.7287L27.1003 22.7524C26.66 23.1533 26.4213 23.7296 26.4491 24.3244L26.4508 24.3596C26.5058 25.5366 25.5366 26.5058 24.3596 26.4508L24.3244 26.4491C23.7296 26.4213 23.1533 26.66 22.7524 27.1003L22.7287 27.1263C21.9353 27.9975 20.5647 27.9975 19.7713 27.1263L19.7476 27.1003C19.3467 26.66 18.7704 26.4213 18.1756 26.4491L18.1404 26.4508C16.9634 26.5058 15.9942 25.5366 16.0492 24.3596L16.0509 24.3244C16.0787 23.7296 15.84 23.1533 15.3997 22.7524L15.3737 22.7287C14.5025 21.9353 14.5025 20.5647 15.3737 19.7713L15.3997 19.7476C15.84 19.3467 16.0787 18.7704 16.0509 18.1756L16.0492 18.1404C15.9942 16.9634 16.9634 15.9942 18.1404 16.0492L18.1756 16.0509C18.7704 16.0787 19.3467 15.84 19.7476 15.3997L19.7713 15.3737Z" stroke="#BC6C25" stroke-width="1.5"/>
<path d="M19.2041 21.25L20.5677 22.6136L23.295 19.8864" stroke="#BC6C25" stroke-width="1.5" stroke-linecap="round" stroke-linejoin="round"/>
<path d="M11.25 15C14.0114 15 16.25 12.7614 16.25 10C16.25 7.23858 14.0114 5 11.25 5C8.48858 5 6.25 7.23858 6.25 10C6.25 12.7614 8.48858 15 11.25 15Z" stroke="#BC6C25" stroke-width="1.5" stroke-linecap="round" stroke-linejoin="round"/>
</svg>
