<svg width="30" height="30" viewBox="0 0 30 30" fill="none" xmlns="http://www.w3.org/2000/svg">
<path d="M24.25 25H5.75C4.64543 25 3.75 24.1046 3.75 23V10.75C3.75 9.64543 4.64543 8.75 5.75 8.75H24.25C25.3546 8.75 26.25 9.64543 26.25 10.75V23C26.25 24.1046 25.3546 25 24.25 25Z" stroke="black" stroke-width="1.5"/>
<path d="M20.625 17.5C20.2798 17.5 20 17.2202 20 16.875C20 16.5298 20.2798 16.25 20.625 16.25C20.9702 16.25 21.25 16.5298 21.25 16.875C21.25 17.2202 20.9702 17.5 20.625 17.5Z" fill="black" stroke="black" stroke-width="1.5" stroke-linecap="round" stroke-linejoin="round"/>
<path d="M22.5 8.75V6.35322C22.5 5.03916 21.2544 4.08217 19.9847 4.42075L5.23467 8.35409C4.35917 8.58756 3.75 9.38046 3.75 10.2866V11.25" stroke="black" stroke-width="1.5"/>
</svg>
